<?xml version="1.0" encoding="UTF-8"?>
<svg width="513px" height="412px" viewBox="0 0 513 412" version="1.1" xmlns="http://www.w3.org/2000/svg" xmlns:xlink="http://www.w3.org/1999/xlink">
    <title>tab-stash-simple</title>
    <g id="Page-1" stroke="none" stroke-width="1" fill="none" fill-rule="evenodd">
        <g id="tab-stash-simple" transform="translate(0.9305, 0.7538)" fill-rule="nonzero">
            <g id="tabs" transform="translate(-0, 0)" fill="#B9E2F6">
                <path d="M511.964059,369.434135 C511.936266,377.855527 510.664885,386.041147 505.846512,393.225836 C498.10223,404.773539 487.215551,410.807856 473.304236,410.814595 C363.444875,410.86777 253.585537,410.847848 143.726176,410.849864 C108.673258,410.850553 73.6150034,410.488707 38.5696862,411.008167 C21.5060251,411.255736 0.00604393011,398.353568 0.00654844837,372.614262 C0.0074825325,325.877088 1.79641306e-15,279.139939 1.79641306e-15,232.40279 C1.79641306e-15,165.788852 0.00640015546,99.1749267 0.00689258463,32.5610017 C0.00694174695,27.0284302 0.396507214,21.5320012 2.698728,16.4202802 C7.46080172,5.84682263 15.7248318,0.22950826 27.3223284,0.120600015 C45.0486363,-0.0458370135 62.777761,0.067240358 80.5056308,0.0935325292 C87.284177,0.10358018 93.5594783,1.65640599 98.5668405,6.57800499 C99.9051711,7.89342433 101.004164,7.95111268 102.322179,6.64093195 C107.771175,1.22435218 114.565929,-0.0412745887 121.935305,0.0380580869 C134.558217,0.173947582 147.185385,0.195824815 159.80756,0.0262647711 C168.567456,-0.0913871142 177.095493,0.169077288 183.82994,7.75079637 C190.671426,-0.050682323 199.489466,-0.115539515 208.506999,0.0306055624 C221.128165,0.235115988 233.75548,0.152167867 246.379279,0.0669824573 C254.069131,0.0150984764 260.997069,1.82135444 266.444147,7.46368276 C267.941855,7.36666616 282.106902,58.3599736 286.268677,58.2885609 C299.829164,58.0558772 460.748617,57.9078403 474.304923,58.2415985 C490.084203,58.6300936 502.141718,65.4141621 508.924618,80.189018 C511.436636,85.6607781 511.964108,91.5372657 511.964944,97.4753401 C511.97493,168.385823 511.980243,239.296294 511.987277,310.609735 C511.986588,330.486548 512.0284,349.96049 511.964059,369.434135 Z" id="Shape"></path>
            </g>
            <g id="background" transform="translate(13.2489, 13.4376)" fill="#98E0FD">
                <path d="M195.208389,384.235133 C200.043142,384.234346 204.877919,384.232969 209.712672,384.232772 C292.845004,384.229722 375.978099,384.03419 459.109029,384.379195 C476.718202,384.451965 485.610643,370.076734 485.585511,357.771593 C485.397499,265.909888 485.480238,174.047665 485.465727,82.1855898 C485.465432,80.1820913 485.515508,78.1924277 485.012779,76.188843 C482.096954,64.5673165 473.492967,57.9644305 460.816387,57.9577896 C390.174129,57.9207494 319.531821,57.9214497 248.889562,57.9118212 C205.376147,57.9058935 161.862682,57.9313128 118.349316,57.8852945 C104.853909,57.8710173 97.6786898,52.9325338 92.8163653,40.5329096 C88.84909,30.4157686 84.9426381,20.2747219 81.0222169,10.1392329 C77.9714119,2.25201513 74.8434028,0.026900209 66.5925563,0.0184031866 C49.401996,0.000141361493 32.2114357,-0.00648745553 15.0208996,0.00755604397 C5.56935762,0.0152793642 0.938316006,4.55740891 0.75305142,14.0238438 C0.356353387,34.2949192 -0.0157368897,54.5639541 0.000513380884,74.843097 C0.0794840814,169.52542 0.0385076886,264.207841 0.019839707,358.890238 C0.0180448793,367.994051 3.39349529,375.331231 10.9997971,380.520452 C15.8982762,383.862317 21.4720819,384.264303 27.1977758,384.260073 C82.9326591,384.21895 138.667567,384.233215 195.208389,384.235133" id="Shape"></path>
            </g>
            <g id="browser" transform="translate(-0, -0)" fill="#000000">
                <path d="M511.964059,369.434135 C511.936266,377.855527 510.664885,386.041147 505.846512,393.225836 C498.10223,404.773539 487.215551,410.807856 473.304236,410.814595 C363.444875,410.86777 253.585537,410.847848 143.726176,410.849864 C108.673258,410.850553 73.6150034,410.488707 38.5696862,411.008167 C21.5060251,411.255736 0.00604393011,398.353568 0.00654844837,372.614262 C0.0074825325,325.877088 0,279.139939 0,232.40279 C0,165.788852 0.00640015546,99.1749267 0.00689258463,32.5610017 C0.00694174695,27.0284302 0.396507214,21.5320012 2.698728,16.4202802 C7.46080172,5.84682263 15.7248318,0.22950826 27.3223284,0.120600015 C45.0486363,-0.0458370135 62.777761,0.067240358 80.5056308,0.0935325292 C87.284177,0.10358018 93.5594783,1.65640599 98.5668405,6.57800499 C99.9051711,7.89342433 101.004164,7.95111268 102.322179,6.64093195 C107.771175,1.22435218 114.565929,-0.0412745887 121.935305,0.0380580869 C134.558217,0.173947582 147.185385,0.195824815 159.80756,0.0262647711 C168.567456,-0.0913871142 177.095493,0.169077288 183.82994,7.75079637 C190.671426,-0.050682323 199.489466,-0.115539515 208.506999,0.0306055624 C221.128165,0.235115988 233.75548,0.152167867 246.379279,0.0669824573 C254.069131,0.0150984764 260.997069,1.82135444 266.444147,7.46368276 C267.941855,7.36666616 284.640105,58.3130112 288.80188,58.2415985 C302.362367,58.0089148 460.748617,57.9078403 474.304923,58.2415985 C490.084203,58.6300936 502.141718,65.4141621 508.924618,80.189018 C511.436636,85.6607781 511.964108,91.5372657 511.964944,97.4753401 C511.97493,168.385823 511.980243,239.296294 511.987277,310.609735 C511.986588,330.486548 512.0284,349.96049 511.964059,369.434135 Z M222.961599,397.67036 C306.093931,397.667309 389.227026,397.471777 472.357956,397.817057 C489.967129,397.889553 498.85957,383.514321 498.834491,371.20918 C498.646426,279.347475 498.729165,187.485252 498.714654,95.623177 C498.714359,93.6196786 498.764435,91.6300149 498.261706,89.6264302 C495.345881,78.0049037 486.741894,71.4020177 474.065314,71.3953768 C403.423056,71.3583366 332.780748,71.359037 262.138489,71.3494084 C218.625074,71.3434807 175.11161,71.3689001 131.598243,71.3228817 C118.102836,71.3086045 110.927617,66.370121 106.065292,53.9704968 C102.098017,43.8533558 98.1915652,33.7123091 94.271144,23.5768201 C91.220339,15.6896024 88.0923298,13.4644874 79.8414833,13.4559904 C62.650923,13.4375872 45.4603627,13.4310998 28.2698266,13.4451433 C18.8182847,13.4528666 14.1872431,17.9949961 14.0019785,27.461431 C13.6052804,47.7325065 13.2331902,68.0015413 13.2489271,88.2806842 C13.3284111,182.963007 13.2874347,277.645428 13.2687668,372.327826 C13.2669719,381.431638 16.6424223,388.768818 24.2487242,393.958039 C29.1472032,397.299905 34.7210089,397.70189 40.4467028,397.69766 C96.1815862,397.656537 151.916494,397.670802 208.457316,397.67272 C213.292069,397.671934 218.126846,397.670556 222.961599,397.67036 Z M268.846816,45.4209392 C266.176402,37.9702643 263.507809,30.5189374 260.835084,23.0690862 C258.26625,15.908747 254.875341,13.4565804 247.346367,13.4294025 C238.21454,13.3964452 229.082467,13.4179903 219.950516,13.4175971 C212.833243,13.4173013 205.711272,13.2605065 198.600222,13.4711534 C192.958152,13.6382907 189.975009,18.0710575 191.618739,23.3064193 C194.751348,33.283907 198.045991,43.2147381 200.936163,53.2619299 C202.03464,57.0806133 203.974326,58.2656034 207.832865,58.2362736 C227.975677,58.0832289 248.120357,58.1877472 268.2643,58.1574946 C269.667611,58.1553798 271.21692,58.6593992 272.658157,57.3597819 C272.018433,53.4509574 270.272459,49.8118446 268.846816,45.4209392 M126.879064,58.0095047 C147.435126,58.0095047 167.991213,58.0095047 189.219342,58.0095047 C184.978616,44.5062887 181.382926,31.6274857 176.317543,19.2512273 C174.889514,15.7620974 171.57062,13.5807257 167.667932,13.5507802 C150.370431,13.4180887 133.070397,13.3720711 115.773561,13.5353964 C110.078635,13.5891736 106.515043,19.2781964 108.502566,24.6041426 C111.734491,33.2647603 115.123063,41.8668772 118.364186,50.5241132 C119.785206,54.319787 122.239525,56.8820547 126.879064,58.0095047" id="Shape"></path>
            </g>
            <g id="face" transform="translate(93.3397, 165.5303)">
                <g id="moustache" transform="translate(-0, 59.7364)">
                    <path d="M268.549547,105.820745 C247.665021,111.147906 227.185676,111.49637 206.764769,105.046736 C191.002427,100.068433 178.291951,90.8969516 168.437807,77.6874393 C166.99845,75.757975 165.606021,73.7934373 164.044524,71.6421003 C162.224753,72.857961 161.385935,74.7361445 160.188053,76.2718166 C144.865277,95.9152964 125.058954,107.355139 100.017921,109.303959 C74.4330662,111.295133 50.6460174,106.341375 29.6117563,90.9735411 C16.970441,81.7377191 7.25024231,70.165973 2.0162973,55.1935547 C0.729970595,51.5138498 -0.240578364,47.7306242 0.0525961612,43.779168 C0.264409255,40.9239671 1.43614668,38.6553595 4.30485099,37.503963 C7.09821983,36.382719 8.98904602,37.8985917 10.6944728,39.6591613 C18.6902819,47.9134648 28.1922724,52.3535038 39.8744008,51.4406798 C49.7870814,50.666055 58.1265334,46.2749362 65.4713818,39.9170665 C71.3526222,34.8261659 76.6767334,29.0688354 82.7206959,24.1930691 C98.7674061,11.2478322 116.960288,5.6197493 137.56015,9.5460692 C146.492074,11.2484713 154.095664,15.6767292 160.814099,21.7081722 C161.898523,22.6816975 163.003091,23.632792 164.33632,24.8031521 C168.404111,21.6615401 171.824559,18.0012904 176.113067,15.5045882 C192.450393,5.99307877 209.369985,6.63550389 226.507539,12.8301856 C237.605114,16.8416049 246.597494,24.0270274 254.761066,32.3481066 C262.151169,39.8808866 269.973852,46.8411409 280.389847,49.8779042 C293.313023,53.6456098 305.056172,51.4886152 315.23512,42.3445584 C316.233535,41.4476468 317.160724,40.4691046 318.182897,39.6013388 C320.01863,38.0429409 321.757114,36.2541355 324.582407,37.5308208 C327.593198,38.8913256 328.664513,41.3776248 328.492347,44.3823643 C328.070343,51.7484144 325.683237,58.5627947 322.032284,64.9119328 C309.977022,85.8765411 291.976917,99.1444417 268.549547,105.820745 Z" id="Path" fill="#6BBBEB"></path>
                    <path d="M268.549547,97.5679837 C247.665021,102.895145 227.185676,103.243609 206.764769,96.7939746 C191.002427,91.8156709 178.291951,82.6441898 168.437807,69.4346776 C166.99845,67.5052133 165.606021,65.5406756 164.044524,63.3893386 C162.224753,64.6051993 161.385935,66.4833828 160.188053,68.0190549 C144.865277,87.6625347 125.058954,99.1023768 100.017921,101.051197 C74.4330662,103.042371 50.6460174,98.0886137 29.6117563,82.7207793 C16.970441,73.4849573 7.25024231,61.9132112 2.0162973,46.940793 C0.729970595,43.261088 -0.240578364,39.4778625 0.0525961612,35.5264063 C0.264409255,32.6712054 1.43614668,30.4025978 4.30485099,29.2512013 C7.09821983,28.1299572 8.98904602,29.64583 10.6944728,31.4063996 C18.6902819,39.660703 28.1922724,44.1007421 39.8744008,43.1879181 C49.7870814,42.4132933 58.1265334,38.0221744 65.4713818,31.6643048 C71.3526222,26.5734042 76.6767334,20.8160737 82.7206959,15.9403074 C98.7674061,2.99507045 116.960288,-2.63301244 137.56015,1.29330746 C146.492074,2.99570956 154.095664,7.42396743 160.814099,13.4554105 C161.898523,14.4289358 163.003091,15.3800303 164.33632,16.5503904 C168.404111,13.4087784 171.824559,9.74852863 176.113067,7.25182642 C192.450393,-2.25968297 209.369985,-1.61725785 226.507539,4.57742388 C237.605114,8.58884314 246.597494,15.7742657 254.761066,24.0953448 C262.151169,31.6281248 269.973852,38.5883792 280.389847,41.6251424 C293.313023,45.3928481 305.056172,43.2358534 315.23512,34.0917966 C316.233535,33.194885 317.160724,32.2163428 318.182897,31.348577 C320.01863,29.7901792 321.757114,28.0013737 324.582407,29.278059 C327.593198,30.6385639 328.664513,33.1248631 328.492347,36.1296026 C328.070343,43.4956526 325.683237,50.3100329 322.032284,56.6591711 C309.977022,77.6237794 291.976917,90.89168 268.549547,97.5679837 Z" id="Path" fill="#000000"></path>
                </g>
                <g id="eyes" transform="translate(50.9785, 0)" fill="#000000">
                    <path d="M15.8648397,42.7986177 C4.7095389,39.8771078 -0.364120396,30.0133223 0.0202769657,20.9091335 C0.494718083,9.67266874 7.07751011,2.17176422 17.3581342,0.273043109 C28.3558781,-1.75812194 39.166257,7.80879943 39.797565,20.1313615 C40.5269343,34.367672 30.9784833,43.5726018 15.8648397,42.7986177 Z" id="open-left"></path>
                    <path d="M198.86484,42.7986177 C187.709539,39.8771078 182.63588,30.0133223 183.020277,20.9091335 C183.494718,9.67266874 190.07751,2.17176422 200.358134,0.273043109 C211.355878,-1.75812194 222.166257,7.80879943 222.797565,20.1313615 C223.526934,34.367672 213.978483,43.5726018 198.86484,42.7986177 Z" id="morphing-eye">
                        <animate
                            attributeName="d"
                            dur="22s"
                            repeatCount="indefinite"
                            calcMode="spline"
                            keySplines="0 0 1 1; 0.4 0 0.6 1; 0 0 1 1; 0.4 0 0.6 1; 0 0 1 1; 0.4 0 0.6 1; 0 0 1 1; 0.4 0 0.6 1; 0 0 1 1; 0.4 0 0.6 1; 0 0 1 1; 0.4 0 0.6 1; 0 0 1 1"
                            values="
                                M198.86484,42.7986177 C187.709539,39.8771078 182.63588,30.0133223 183.020277,20.9091335 C183.494718,9.67266874 190.07751,2.17176422 200.358134,0.273043109 C211.355878,-1.75812194 222.166257,7.80879943 222.797565,20.1313615 C223.526934,34.367672 213.978483,43.5726018 198.86484,42.7986177 Z;
                                M198.86484,42.7986177 C187.709539,39.8771078 182.63588,30.0133223 183.020277,20.9091335 C183.494718,9.67266874 190.07751,2.17176422 200.358134,0.273043109 C211.355878,-1.75812194 222.166257,7.80879943 222.797565,20.1313615 C223.526934,34.367672 213.978483,43.5726018 198.86484,42.7986177 Z;
                                M221.862326,11.0290666 C228.12671,15.332578 232.790491,20.5340825 234.951568,27.6810387 C236.218514,31.8710432 235.042668,35.3876078 231.830247,37.0346955 C228.789697,38.5936841 225.30545,37.6231101 222.86207,33.9160066 C219.069006,28.1612342 214.232911,24.0804562 207.36457,22.6632846 C198.362697,20.8059079 190.998369,23.6174038 185.103355,30.5096526 C184.063078,31.7259074 183.309089,33.1822837 182.341418,34.4664457 C180.190376,37.3211058 177.498978,38.724874 173.946898,37.1726254 C170.877719,35.8313783 169.334127,32.3266923 170.334806,28.7202322 C172.736374,20.0650041 178.358628,13.8787097 186.043233,9.6937963 C198.034056,3.16393235 209.970032,3.97126764 221.862326,11.0290666 Z;
                                M221.862326,11.0290666 C228.12671,15.332578 232.790491,20.5340825 234.951568,27.6810387 C236.218514,31.8710432 235.042668,35.3876078 231.830247,37.0346955 C228.789697,38.5936841 225.30545,37.6231101 222.86207,33.9160066 C219.069006,28.1612342 214.232911,24.0804562 207.36457,22.6632846 C198.362697,20.8059079 190.998369,23.6174038 185.103355,30.5096526 C184.063078,31.7259074 183.309089,33.1822837 182.341418,34.4664457 C180.190376,37.3211058 177.498978,38.724874 173.946898,37.1726254 C170.877719,35.8313783 169.334127,32.3266923 170.334806,28.7202322 C172.736374,20.0650041 178.358628,13.8787097 186.043233,9.6937963 C198.034056,3.16393235 209.970032,3.97126764 221.862326,11.0290666 Z;
                                M198.86484,42.7986177 C187.709539,39.8771078 182.63588,30.0133223 183.020277,20.9091335 C183.494718,9.67266874 190.07751,2.17176422 200.358134,0.273043109 C211.355878,-1.75812194 222.166257,7.80879943 222.797565,20.1313615 C223.526934,34.367672 213.978483,43.5726018 198.86484,42.7986177 Z;
                                M198.86484,42.7986177 C187.709539,39.8771078 182.63588,30.0133223 183.020277,20.9091335 C183.494718,9.67266874 190.07751,2.17176422 200.358134,0.273043109 C211.355878,-1.75812194 222.166257,7.80879943 222.797565,20.1313615 C223.526934,34.367672 213.978483,43.5726018 198.86484,42.7986177 Z;
                                M221.862326,11.0290666 C228.12671,15.332578 232.790491,20.5340825 234.951568,27.6810387 C236.218514,31.8710432 235.042668,35.3876078 231.830247,37.0346955 C228.789697,38.5936841 225.30545,37.6231101 222.86207,33.9160066 C219.069006,28.1612342 214.232911,24.0804562 207.36457,22.6632846 C198.362697,20.8059079 190.998369,23.6174038 185.103355,30.5096526 C184.063078,31.7259074 183.309089,33.1822837 182.341418,34.4664457 C180.190376,37.3211058 177.498978,38.724874 173.946898,37.1726254 C170.877719,35.8313783 169.334127,32.3266923 170.334806,28.7202322 C172.736374,20.0650041 178.358628,13.8787097 186.043233,9.6937963 C198.034056,3.16393235 209.970032,3.97126764 221.862326,11.0290666 Z;
                                M221.862326,11.0290666 C228.12671,15.332578 232.790491,20.5340825 234.951568,27.6810387 C236.218514,31.8710432 235.042668,35.3876078 231.830247,37.0346955 C228.789697,38.5936841 225.30545,37.6231101 222.86207,33.9160066 C219.069006,28.1612342 214.232911,24.0804562 207.36457,22.6632846 C198.362697,20.8059079 190.998369,23.6174038 185.103355,30.5096526 C184.063078,31.7259074 183.309089,33.1822837 182.341418,34.4664457 C180.190376,37.3211058 177.498978,38.724874 173.946898,37.1726254 C170.877719,35.8313783 169.334127,32.3266923 170.334806,28.7202322 C172.736374,20.0650041 178.358628,13.8787097 186.043233,9.6937963 C198.034056,3.16393235 209.970032,3.97126764 221.862326,11.0290666 Z;
                                M198.86484,42.7986177 C187.709539,39.8771078 182.63588,30.0133223 183.020277,20.9091335 C183.494718,9.67266874 190.07751,2.17176422 200.358134,0.273043109 C211.355878,-1.75812194 222.166257,7.80879943 222.797565,20.1313615 C223.526934,34.367672 213.978483,43.5726018 198.86484,42.7986177 Z;
                                M198.86484,42.7986177 C187.709539,39.8771078 182.63588,30.0133223 183.020277,20.9091335 C183.494718,9.67266874 190.07751,2.17176422 200.358134,0.273043109 C211.355878,-1.75812194 222.166257,7.80879943 222.797565,20.1313615 C223.526934,34.367672 213.978483,43.5726018 198.86484,42.7986177 Z;
                                M221.862326,11.0290666 C228.12671,15.332578 232.790491,20.5340825 234.951568,27.6810387 C236.218514,31.8710432 235.042668,35.3876078 231.830247,37.0346955 C228.789697,38.5936841 225.30545,37.6231101 222.86207,33.9160066 C219.069006,28.1612342 214.232911,24.0804562 207.36457,22.6632846 C198.362697,20.8059079 190.998369,23.6174038 185.103355,30.5096526 C184.063078,31.7259074 183.309089,33.1822837 182.341418,34.4664457 C180.190376,37.3211058 177.498978,38.724874 173.946898,37.1726254 C170.877719,35.8313783 169.334127,32.3266923 170.334806,28.7202322 C172.736374,20.0650041 178.358628,13.8787097 186.043233,9.6937963 C198.034056,3.16393235 209.970032,3.97126764 221.862326,11.0290666 Z;
                                M221.862326,11.0290666 C228.12671,15.332578 232.790491,20.5340825 234.951568,27.6810387 C236.218514,31.8710432 235.042668,35.3876078 231.830247,37.0346955 C228.789697,38.5936841 225.30545,37.6231101 222.86207,33.9160066 C219.069006,28.1612342 214.232911,24.0804562 207.36457,22.6632846 C198.362697,20.8059079 190.998369,23.6174038 185.103355,30.5096526 C184.063078,31.7259074 183.309089,33.1822837 182.341418,34.4664457 C180.190376,37.3211058 177.498978,38.724874 173.946898,37.1726254 C170.877719,35.8313783 169.334127,32.3266923 170.334806,28.7202322 C172.736374,20.0650041 178.358628,13.8787097 186.043233,9.6937963 C198.034056,3.16393235 209.970032,3.97126764 221.862326,11.0290666 Z;
                                M198.86484,42.7986177 C187.709539,39.8771078 182.63588,30.0133223 183.020277,20.9091335 C183.494718,9.67266874 190.07751,2.17176422 200.358134,0.273043109 C211.355878,-1.75812194 222.166257,7.80879943 222.797565,20.1313615 C223.526934,34.367672 213.978483,43.5726018 198.86484,42.7986177 Z;
                                M198.86484,42.7986177 C187.709539,39.8771078 182.63588,30.0133223 183.020277,20.9091335 C183.494718,9.67266874 190.07751,2.17176422 200.358134,0.273043109 C211.355878,-1.75812194 222.166257,7.80879943 222.797565,20.1313615 C223.526934,34.367672 213.978483,43.5726018 198.86484,42.7986177 Z"
                            keyTimes="0; 0.045; 0.060; 0.089; 0.110; 0.281; 0.296; 0.325; 0.346; 0.654; 0.669; 0.698; 0.719; 1"
                        />
                    </path>
                </g>
            </g>
        </g>
    </g>
</svg>
