<?xml version="1.0" encoding="UTF-8"?>
<svg width="513px" height="513px" viewBox="0 0 513 513" version="1.1" xmlns="http://www.w3.org/2000/svg" xmlns:xlink="http://www.w3.org/1999/xlink">
    <title>light-mode</title>
    <g id="Page-1" stroke="none" stroke-width="1" fill="none" fill-rule="evenodd">
        <g id="letter" transform="translate(0.2702, -65.6135)" fill="#000000" fill-rule="nonzero">
            <g id="light-mode" transform="translate(0, 64.7035)">
                <path d="M195.585417,155.777492 C195.918308,132.845004 195.348611,110.450908 196.293972,88.0679131 C196.564385,81.6643506 288.839844,80.1450008 272.600894,88.0679131 C256.361944,95.9908254 316.239918,92.0838121 316.278058,96.5623437 C316.502764,122.960659 315.70516,139.520412 316.278058,165.908892 C317.744375,233.445508 316.708265,300.98986 317.433122,368.524543 C317.614687,385.438968 317.6927,402.390601 318.539578,419.279622 C319.485007,438.131846 327.688276,452.356412 348.927241,460.29497 C355.582914,462.782595 362.501496,464.277984 369.454352,465.649952 C380.944717,467.91734 383.903357,471.473082 383.915114,482.902569 C383.918626,490.185282 383.875885,497.468261 383.915114,504.750705 C383.941096,509.637475 381.647504,512.139969 376.705392,512.370609 C354.688227,513.397852 332.66386,512.922637 310.643827,512.667193 C276.786305,512.274392 242.933148,512.233318 209.074257,512.691064 C184.691888,513.020654 160.302317,512.791081 135.916247,512.88743 C130.467381,512.909034 127.804059,510.21884 127.726612,504.976011 C127.584155,495.329028 127.53688,485.679311 127.593523,476.031528 C127.619828,471.550161 130.626709,469.327714 134.433627,467.810722 C141.399818,465.034847 148.898,464.415875 156.046789,462.361189 C170.624282,458.171473 182.965459,451.161607 189.16602,436.413352 C191.640476,430.527812 192.878621,424.307815 193.096826,417.880383 C194.480928,377.119145 193.497194,336.325903 194.532238,295.571466 C195.711072,249.153195 194.764144,202.734856 195.585417,155.777492 Z" id="Path"></path>
                <path d="M418.548501,153.064801 C385.998876,161.367459 354.080747,161.910559 322.253695,151.858467 C297.687263,144.099521 277.877321,129.805288 262.519123,109.217573 C260.27581,106.210402 258.105636,103.148567 255.671962,99.7955963 C252.835754,101.690579 251.528413,104.617826 249.661451,107.011251 C225.780104,137.626641 194.910914,155.456232 155.883156,158.493571 C116.007823,161.596919 78.9344645,153.87623 46.1514694,129.924657 C26.449319,115.530146 11.2998815,97.4949748 3.14250469,74.1596786 C1.13769731,68.4246661 -0.374953951,62.5283114 0.0819738654,56.3697605 C0.41209564,51.9197807 2.23830965,48.3840372 6.7093352,46.5895256 C11.0629465,44.8420082 14.0098979,47.2045751 16.6678946,49.9485147 C29.1297809,62.813278 43.9391296,69.7333108 62.1463371,68.310627 C77.5957678,67.1033337 90.5932395,60.2595455 102.040569,50.3504735 C111.20679,42.4160389 119.504695,33.4429385 128.924527,25.843802 C153.934163,5.6679738 182.28872,-3.10368746 214.394682,3.01568726 C228.315552,5.66896988 240.166144,12.5706411 250.637176,21.9709603 C252.327307,23.4882503 254.048835,24.9705808 256.126742,26.7946482 C262.466607,21.8982817 267.797553,16.1935912 274.481417,12.3023504 C299.943993,-2.52183397 326.314061,-1.52058086 353.023834,8.13415429 C370.319986,14.3861608 384.335079,25.5850173 397.058433,38.5538539 C408.576294,50.2940852 420.768355,61.1420052 437.002228,65.8749594 C457.143673,71.7471256 475.445984,68.3853367 491.310405,54.1338464 C492.866489,52.7359628 494.31156,51.2108537 495.904671,49.8583953 C498.765756,47.4295508 501.475274,44.6416041 505.878641,46.6313848 C510.571116,48.7518027 512.240816,52.62683 511.972486,57.3098734 C511.314772,68.7902473 507.594342,79.4108151 501.904141,89.3062786 C483.115385,121.980716 455.061281,142.659432 418.548501,153.064801 Z" id="Path"></path>
            </g>
        </g>
    </g>
</svg>